<?xml version="1.0" standalone="no"?>
<!DOCTYPE svg PUBLIC "-//W3C//DTD SVG 20010904//EN"
 "http://www.w3.org/TR/2001/REC-SVG-20010904/DTD/svg10.dtd">
<svg version="1.0" xmlns="http://www.w3.org/2000/svg"
 width="1350.000000pt" height="1350.000000pt" viewBox="0 0 1350.000000 1350.000000"
 preserveAspectRatio="xMidYMid meet">
<metadata>
Created by potrace 1.10, written by Peter Selinger 2001-2011
</metadata>
<g transform="translate(0.000000,1350.000000) scale(0.100000,-0.100000)"
fill="#000000" stroke="none">
<path d="M8815 13254 c-222 -16 -468 -51 -599 -85 -23 -6 -68 -17 -101 -26
-33 -9 -78 -21 -100 -28 -22 -7 -69 -22 -105 -34 -36 -11 -90 -30 -120 -41
-30 -12 -66 -25 -80 -30 -72 -23 -312 -135 -381 -176 -19 -12 -84 -48 -145
-79 -60 -32 -138 -79 -174 -105 -36 -26 -83 -57 -105 -70 -36 -21 -272 -195
-285 -209 -3 -3 -41 -37 -85 -75 -214 -186 -470 -469 -601 -666 -17 -25 -51
-76 -77 -113 -26 -38 -47 -70 -47 -72 0 -2 -13 -24 -30 -48 -16 -25 -30 -48
-30 -53 0 -4 -6 -15 -14 -23 -21 -24 -150 -278 -191 -378 -20 -48 -41 -96 -46
-105 -10 -20 -30 -73 -64 -173 -13 -39 -28 -81 -33 -95 -5 -14 -18 -52 -27
-85 -9 -33 -22 -76 -28 -95 -6 -19 -14 -53 -18 -75 -4 -22 -12 -60 -19 -85
-30 -124 -37 -161 -60 -340 -6 -47 -15 -111 -21 -143 -10 -58 -14 -773 -4
-799 3 -7 12 -69 20 -138 20 -171 49 -329 89 -490 9 -36 21 -84 26 -108 5 -23
13 -50 18 -60 5 -9 13 -34 16 -56 4 -21 11 -46 16 -55 5 -9 32 -80 61 -159 28
-78 56 -145 60 -148 5 -3 9 -12 9 -21 0 -9 41 -99 91 -202 128 -259 139 -289
132 -356 -6 -53 2 -95 43 -227 8 -27 21 -72 30 -100 18 -62 22 -72 64 -160 17
-37 34 -83 37 -102 5 -31 2 -37 -24 -53 -16 -10 -65 -56 -109 -103 -43 -46
-162 -169 -264 -271 -102 -103 -282 -287 -400 -410 -118 -122 -222 -229 -230
-236 -152 -145 -2230 -2225 -2230 -2232 0 -6 -6 -11 -12 -11 -7 0 -103 -91
-214 -202 -111 -112 -412 -413 -670 -669 -258 -257 -499 -497 -536 -535 -36
-38 -119 -121 -182 -184 -64 -63 -157 -157 -208 -208 -51 -52 -124 -121 -163
-154 -79 -68 -195 -196 -195 -216 0 -7 9 -31 20 -53 18 -35 19 -42 7 -60 -19
-26 -6 -84 30 -142 33 -52 248 -268 326 -328 95 -71 140 -99 178 -109 20 -6
42 -17 49 -25 7 -8 17 -15 23 -15 5 0 31 -15 57 -34 69 -50 125 -76 160 -76
33 0 76 39 252 231 42 46 156 165 254 264 97 99 209 216 247 260 39 44 76 81
81 83 6 2 31 28 56 59 25 31 88 101 141 157 53 56 121 128 150 161 30 33 92
100 139 150 47 50 128 137 180 195 160 176 312 339 319 342 3 2 29 30 57 63
29 33 80 90 115 126 35 36 107 112 159 169 52 57 167 180 255 274 216 230 409
438 475 511 30 33 94 101 141 150 47 50 136 146 199 215 63 69 189 204 280
300 91 96 224 238 295 315 72 77 141 152 155 166 202 213 303 321 470 499 176
188 507 520 690 690 74 69 141 132 150 141 27 26 44 28 113 15 36 -7 79 -11
94 -9 16 3 69 -7 118 -20 50 -14 131 -33 180 -43 50 -9 116 -25 148 -35 73
-24 94 -24 107 1 l11 21 33 -21 c18 -11 39 -20 45 -20 7 0 42 -14 79 -31 179
-83 214 -98 312 -131 315 -108 516 -159 800 -202 360 -56 781 -56 1140 0 489
76 1047 273 1408 497 20 13 44 27 52 30 37 17 254 165 340 231 484 373 845
817 1111 1366 92 189 137 290 172 385 8 22 22 58 30 80 9 22 24 65 33 95 9 30
22 71 29 90 19 53 41 127 60 200 9 36 23 88 31 116 8 28 14 61 14 73 0 12 6
50 14 84 73 317 84 872 26 1242 -24 153 -42 253 -55 305 -8 30 -25 100 -39
155 -13 55 -32 125 -41 155 -9 30 -20 69 -25 85 -11 38 -67 193 -79 220 -5 11
-33 76 -61 145 -67 158 -176 371 -270 525 -75 122 -84 135 -192 285 -171 237
-376 453 -670 706 -102 88 -412 306 -503 354 -11 5 -47 26 -80 45 -55 32 -289
149 -360 180 -207 90 -394 153 -610 206 -188 46 -231 54 -450 89 -96 16 -469
40 -585 38 -52 0 -176 -7 -275 -14z m503 -495 c130 -9 443 -62 527 -89 17 -5
98 -26 180 -46 311 -75 543 -168 830 -332 518 -297 935 -700 1270 -1229 62
-98 230 -430 274 -543 59 -151 160 -435 184 -520 8 -30 22 -80 31 -111 9 -31
16 -69 16 -85 0 -16 9 -65 20 -109 11 -44 20 -104 20 -132 0 -36 4 -53 13 -53
9 0 13 -43 14 -180 1 -104 7 -188 13 -199 25 -49 -14 -492 -56 -622 -8 -25
-12 -52 -9 -60 3 -9 1 -26 -4 -40 -9 -23 -10 -23 -10 -2 -1 21 -17 40 -27 31
-10 -10 -34 -123 -29 -135 9 -26 26 -2 20 28 -6 25 -4 29 15 29 17 0 20 -4 15
-17 -11 -26 -25 -91 -34 -150 -8 -58 -16 -72 -33 -55 -8 8 -8 19 1 40 14 33
12 72 -4 75 -5 1 -13 -9 -17 -23 -4 -14 -15 -52 -24 -85 -9 -33 -23 -69 -30
-80 -8 -11 -14 -29 -14 -42 0 -23 21 -44 27 -26 2 6 13 21 24 34 10 12 19 33
19 46 0 12 5 23 10 23 6 0 10 -9 10 -21 0 -27 -30 -119 -47 -144 -7 -11 -13
-29 -13 -41 0 -12 -7 -27 -15 -34 -8 -7 -15 -25 -15 -39 0 -38 -39 -116 -52
-103 -12 12 0 78 18 93 8 6 14 22 14 34 0 13 5 25 11 27 6 2 9 22 7 48 l-3 45
-26 -55 c-14 -30 -34 -75 -44 -100 -10 -25 -24 -59 -31 -77 -8 -17 -14 -36
-14 -42 0 -6 -4 -11 -8 -11 -9 0 -52 -93 -52 -111 0 -5 -11 -27 -25 -47 -14
-20 -25 -45 -25 -55 0 -23 -18 -57 -41 -77 -19 -16 -35 -126 -22 -147 10 -14
96 0 130 22 24 16 30 39 13 50 -5 3 -10 14 -10 23 0 17 35 115 51 142 5 8 13
25 18 37 6 11 14 24 19 27 6 3 13 17 16 31 4 14 20 47 36 74 17 26 30 57 30
68 0 11 11 37 25 57 14 20 25 47 25 60 0 13 10 48 23 77 12 30 23 59 23 64 0
6 12 36 27 69 15 32 27 67 27 77 0 10 4 20 9 24 15 9 43 103 47 158 3 28 11
61 19 74 8 12 15 42 15 67 0 24 7 57 15 72 8 16 15 40 15 53 0 36 30 214 40
236 14 30 20 105 23 269 1 109 5 150 15 153 16 6 15 63 -2 86 -11 14 -12 27
-5 53 6 19 7 39 4 45 -4 5 -1 16 5 24 9 10 9 36 1 100 -7 57 -7 103 -1 137 13
65 20 73 20 22 0 -21 9 -64 19 -94 41 -121 42 -633 1 -805 -5 -22 -11 -76 -14
-120 -3 -44 -15 -123 -27 -175 -12 -52 -25 -113 -29 -135 -16 -84 -97 -355
-129 -435 -90 -218 -238 -530 -252 -530 -4 0 -9 -10 -13 -23 -3 -12 -21 -41
-41 -64 -20 -23 -49 -72 -66 -108 -16 -36 -33 -65 -37 -65 -4 0 -16 -15 -27
-32 -10 -18 -23 -37 -27 -43 -5 -5 -45 -59 -89 -120 -45 -60 -95 -126 -113
-146 -17 -19 -49 -57 -71 -85 -22 -27 -75 -85 -118 -129 -43 -44 -104 -106
-135 -138 -31 -32 -71 -67 -89 -78 -18 -11 -33 -24 -33 -29 0 -5 -32 -33 -71
-62 -39 -29 -89 -70 -112 -90 -22 -20 -52 -40 -66 -43 -14 -3 -61 -33 -104
-66 -43 -32 -80 -59 -83 -59 -4 0 -101 -47 -218 -104 -253 -125 -408 -188
-636 -256 -58 -17 -118 -36 -135 -41 -41 -13 -253 -55 -350 -69 -44 -6 -107
-16 -140 -21 -33 -5 -154 -15 -268 -21 -303 -16 -590 3 -857 58 -456 93 -868
255 -1245 489 -322 200 -603 435 -831 694 -21 25 -52 58 -67 75 -71 77 -336
443 -356 491 -2 6 -21 37 -41 70 -40 66 -140 268 -190 385 -50 116 -56 131
-78 185 -18 46 -104 313 -115 360 -3 11 -14 56 -26 99 -96 350 -132 944 -80
1331 6 44 14 109 19 145 15 111 43 244 89 414 23 83 95 307 110 341 5 11 19
45 31 75 55 139 210 453 259 525 16 22 64 94 107 160 43 66 82 122 85 125 4 3
36 43 71 90 35 47 79 101 98 122 19 20 55 61 80 92 25 30 49 55 53 56 4 0 22
16 39 36 17 19 72 70 122 112 50 42 100 84 111 94 28 26 85 59 85 49 0 -7 -25
-30 -112 -101 -46 -37 -227 -219 -273 -274 -22 -27 -52 -60 -67 -74 -16 -14
-28 -31 -28 -38 0 -7 -15 -30 -32 -50 -40 -45 -102 -168 -87 -173 13 -4 124
104 144 139 7 14 73 86 147 161 210 214 475 423 678 535 25 14 74 42 110 64
36 21 73 39 82 39 24 1 100 42 118 63 14 17 82 44 325 128 280 97 304 103 386
96 53 -5 96 -2 145 8 266 59 604 79 932 55z m-2369 -509 c-19 -16 -37 -29 -41
-30 -15 0 -8 21 9 27 9 4 25 15 36 26 10 10 21 16 25 13 3 -4 -10 -20 -29 -36z
m-1063 -835 c18 -14 18 -14 -8 -15 -18 0 -28 5 -28 15 0 19 11 19 36 0z m-73
-92 c-18 -27 -18 -27 -21 -4 -2 13 4 28 15 36 25 19 28 2 6 -32z m-33 -40 c0
-5 -5 -15 -10 -23 -8 -12 -10 -11 -10 8 0 12 5 22 10 22 6 0 10 -3 10 -7z
m-39 -80 c-10 -17 -10 -16 -11 3 0 23 13 41 18 25 2 -6 -1 -18 -7 -28z m-30
-56 c-8 -8 -11 -5 -11 9 0 27 14 41 18 19 2 -9 -1 -22 -7 -28z m-21 -36 c0
-11 -7 -26 -15 -35 -8 -8 -15 -19 -15 -25 0 -24 -74 -165 -78 -148 -3 15 94
227 104 227 2 0 4 -9 4 -19z m-129 -294 c-8 -8 -11 -2 -11 19 0 40 14 54 18
19 2 -15 -1 -32 -7 -38z m-42 -112 c-12 -36 -26 -68 -30 -71 -5 -3 -9 -19 -9
-36 0 -16 -6 -42 -14 -56 -18 -37 -37 -90 -46 -135 -4 -21 -13 -44 -19 -50 -6
-6 -11 -28 -11 -49 0 -21 -6 -55 -14 -75 -8 -21 -17 -59 -20 -85 -3 -26 -10
-56 -15 -65 -5 -10 -14 -43 -19 -73 l-9 -55 -2 67 c0 37 3 69 8 72 5 3 12 33
16 66 4 33 11 62 15 65 4 3 11 29 15 58 4 28 11 57 16 63 5 6 12 33 15 60 4
27 13 58 20 69 8 11 14 29 14 41 0 12 7 35 15 50 8 16 15 37 15 46 0 9 4 19 9
22 5 4 12 24 16 46 4 22 11 40 15 40 5 0 12 15 15 33 9 42 19 56 23 35 2 -10
-7 -47 -19 -83z m7241 -516 c0 -11 -4 -17 -10 -14 -5 3 -10 13 -10 21 0 8 5
14 10 14 6 0 10 -9 10 -21z m30 -148 c0 -28 5 -53 10 -56 6 -3 10 -20 10 -37
0 -43 -8 -32 -25 36 -17 66 -19 106 -5 106 6 0 10 -22 10 -49z m-7495 -235
c-4 -49 -11 -86 -17 -86 -7 0 -9 19 -4 53 3 28 6 72 6 97 0 32 3 41 11 33 8
-8 9 -38 4 -97z m-25 -476 c0 -319 -6 -405 -24 -319 -8 41 -8 393 1 547 12
230 23 122 23 -228z m26 -503 c5 -70 3 -107 -3 -107 -11 0 -23 102 -23 190 1
92 18 35 26 -83z m40 -233 c9 -49 18 -107 21 -129 3 -22 9 -44 13 -50 4 -5 11
-28 14 -50 4 -22 14 -59 22 -83 16 -48 19 -112 5 -112 -10 0 -21 34 -21 70 0
14 -7 34 -15 44 -8 11 -15 36 -15 55 0 20 -7 54 -15 76 -8 22 -14 63 -15 92 0
28 -4 53 -9 55 -5 2 -12 35 -16 73 -10 101 11 73 31 -41z m113 -491 c1 -7 -3
-13 -9 -13 -5 0 -10 15 -9 33 0 27 2 29 9 12 5 -11 9 -26 9 -32z m22 -60 c5
-14 7 -34 3 -42 -5 -13 -8 -11 -14 9 -17 55 -8 82 11 33z m59 -162 c0 -15 9
-40 20 -54 21 -26 27 -67 11 -67 -5 0 -13 15 -16 33 -4 17 -12 35 -17 38 -14
9 -23 79 -9 79 6 0 11 -13 11 -29z m6880 -198 c0 -38 -40 -117 -53 -104 -7 7
-5 25 7 58 10 26 19 54 22 61 7 23 24 12 24 -15z m-60 -157 c0 -8 -4 -18 -10
-21 -5 -3 -10 3 -10 14 0 12 5 21 10 21 6 0 10 -6 10 -14z m-6550 -392 c0 -14
-4 -23 -10 -19 -5 3 -10 15 -10 26 0 10 5 19 10 19 6 0 10 -12 10 -26z m312
-871 c25 -22 23 -43 -4 -43 -30 -1 -51 -19 -63 -55 -7 -19 -18 -31 -32 -33
-12 -2 -29 -14 -37 -28 -9 -13 -23 -24 -32 -24 -23 0 0 36 68 103 32 32 58 64
58 71 0 28 17 32 42 9z m-192 -211 c0 -13 -30 -52 -41 -52 -13 0 -11 34 3 48
13 13 38 16 38 4z m-90 -91 c0 -12 -20 -25 -27 -18 -7 7 6 27 18 27 5 0 9 -4
9 -9z m-112 -118 c-4 -22 -22 -20 -26 1 -2 10 3 16 13 16 10 0 15 -7 13 -17z
m-58 -68 c0 -8 -4 -15 -10 -15 -5 0 -24 -16 -41 -35 -18 -19 -40 -35 -51 -35
-28 0 -22 16 15 39 17 11 38 29 45 40 14 24 42 28 42 6z m-160 -155 c-6 -11
-17 -20 -25 -20 -8 0 -18 -8 -24 -17 -5 -10 -13 -15 -16 -11 -9 9 46 68 63 68
10 0 10 -5 2 -20z m-196 -189 c9 -13 -4 -41 -18 -41 -7 0 -46 -36 -86 -79 -70
-76 -90 -88 -90 -56 0 14 168 185 182 185 4 0 9 -4 12 -9z m-204 -200 c0 -12
-29 -35 -36 -28 -11 10 5 37 21 37 8 0 15 -4 15 -9z m-282 -303 c-2 -6 -15
-18 -28 -27 -21 -14 -23 -14 -16 -1 16 27 28 40 38 40 5 0 8 -5 6 -12z m-240
-240 c-6 -18 -28 -21 -28 -4 0 9 7 16 16 16 9 0 14 -5 12 -12z m-191 -204 c-9
-9 -28 6 -21 18 4 6 10 6 17 -1 6 -6 8 -13 4 -17z m-284 -271 c7 -6 -52 -73
-65 -73 -15 0 -8 19 18 49 26 31 35 36 47 24z m-183 -189 c0 -16 -23 -44 -35
-44 -19 0 -19 9 2 32 16 17 33 24 33 12z m-184 -170 c-3 -9 -6 -20 -6 -25 0
-5 -4 -9 -10 -9 -11 0 -14 33 -3 43 12 13 25 7 19 -9z m-166 -188 c0 -22 -29
-41 -42 -28 -8 8 -8 15 2 27 16 19 40 20 40 1z m-374 -381 c-28 -52 -52 -71
-71 -55 -24 20 -18 36 28 74 51 42 71 33 43 -19z m-166 -150 c7 -8 8 -15 2
-15 -5 0 -15 7 -22 15 -7 8 -8 15 -2 15 5 0 15 -7 22 -15z m-65 -55 c-20 -22
-31 -20 -22 5 4 8 14 15 23 15 16 0 16 -2 -1 -20z m-125 -134 c0 -23 -45 -70
-58 -62 -18 11 -15 24 13 51 27 28 45 32 45 11z m-60 -115 c0 -5 -7 -11 -15
-15 -9 -3 -15 0 -15 9 0 8 7 15 15 15 8 0 15 -4 15 -9z m-120 -61 c0 -12 -7
-31 -15 -44 -9 -13 -14 -30 -13 -37 2 -8 -7 -15 -19 -17 -13 -2 -23 -10 -23
-18 0 -8 -10 -14 -25 -14 -14 0 -29 -8 -35 -20 -6 -12 -22 -25 -36 -30 -17 -7
-24 -17 -24 -35 0 -26 -14 -32 -39 -16 -11 7 -9 14 12 34 15 13 27 29 27 34 0
5 11 15 25 21 14 6 25 17 25 23 0 12 119 136 133 138 4 1 7 -8 7 -19z m-236
-246 c9 -3 16 -12 16 -18 0 -19 -68 -91 -77 -82 -4 4 1 14 11 22 17 12 18 17
8 40 -18 38 0 54 42 38z m-124 -109 c0 -7 8 -19 18 -24 16 -10 16 -12 -3 -26
-13 -10 -30 -13 -49 -9 -29 6 -29 6 -23 -30 4 -27 2 -39 -9 -43 -20 -8 -64 5
-64 19 0 12 109 125 123 127 4 1 7 -6 7 -14z m-143 -173 c23 4 21 -33 -4 -62
-23 -27 -37 -25 -53 5 -18 33 2 84 25 65 7 -6 22 -10 32 -8z m-87 -57 c0 -8
-9 -24 -19 -34 -11 -11 -35 -53 -54 -93 -40 -85 -174 -232 -202 -222 -20 8
-45 -13 -45 -38 0 -23 -67 -106 -92 -114 -10 -3 -24 -17 -32 -32 -8 -15 -17
-26 -20 -24 -15 6 -23 0 -40 -33 -11 -19 -33 -43 -50 -53 -29 -17 -46 -42 -60
-84 -4 -13 -16 -18 -39 -18 -32 0 -35 -3 -46 -43 -8 -34 -21 -52 -57 -80 -26
-21 -51 -37 -56 -37 -4 0 -8 -7 -8 -15 0 -23 -58 -69 -93 -75 -20 -3 -33 -12
-35 -22 -2 -10 -17 -33 -35 -53 -23 -27 -38 -35 -64 -35 -20 0 -36 6 -39 15
-7 17 72 118 123 157 20 15 44 41 54 57 17 29 45 44 69 39 7 -2 17 10 21 27 5
16 14 34 21 40 12 9 29 31 69 92 9 13 31 35 50 49 31 23 35 23 46 7 14 -18 14
-18 18 14 4 41 14 55 35 48 14 -4 20 -2 20 8 0 8 11 22 25 31 14 9 25 21 25
27 0 6 12 24 28 39 15 15 32 33 37 39 6 6 33 33 60 60 28 26 58 60 68 75 10
14 26 26 35 26 11 0 31 22 50 54 18 29 41 57 52 62 24 12 116 98 136 129 18
28 44 33 44 10z m-1306 -1324 c24 -21 68 -109 57 -115 -12 -8 -81 46 -115 89
-21 27 -25 39 -16 45 16 10 50 1 74 -19z"/>
<path d="M5530 9421 c-13 -24 -13 -211 0 -231 7 -12 12 -12 22 -2 9 9 13 43
14 100 1 139 -10 181 -36 133z"/>
<path d="M5740 8105 c0 -14 9 -43 20 -65 11 -22 20 -46 20 -55 0 -9 14 -45 30
-80 17 -35 30 -68 30 -73 0 -4 11 -30 24 -58 13 -27 37 -78 54 -114 16 -36 58
-114 91 -174 34 -60 61 -112 61 -114 0 -5 37 -63 153 -242 39 -60 77 -104 102
-121 22 -15 41 -26 43 -24 6 6 -47 96 -90 152 -24 32 -48 65 -52 73 -10 23
-26 48 -81 130 -47 70 -166 291 -211 390 -11 25 -32 68 -47 95 -33 62 -73 152
-82 185 -3 14 -10 34 -15 45 -5 11 -14 32 -20 48 -12 34 -30 35 -30 2z"/>
<path d="M12122 7163 c-76 -115 -107 -158 -114 -161 -5 -2 -8 -10 -8 -17 0 -8
-17 -32 -37 -53 -21 -22 -65 -70 -98 -108 -159 -179 -390 -387 -551 -497 -27
-18 -107 -73 -179 -121 -71 -49 -143 -95 -160 -103 -16 -8 -61 -34 -99 -58
-69 -44 -69 -44 -98 -27 -29 17 -29 17 -61 -20 -28 -32 -73 -60 -157 -98 -14
-6 -36 -17 -50 -25 -14 -8 -40 -15 -58 -15 -19 0 -45 -9 -59 -20 -14 -11 -38
-20 -53 -20 -15 0 -35 -9 -45 -20 -10 -11 -28 -20 -39 -20 -12 0 -27 -4 -35
-9 -7 -5 -26 -4 -44 3 -23 9 -31 8 -34 -2 -10 -29 -103 -57 -103 -31 0 7 -14
9 -42 5 -24 -3 -52 -7 -63 -7 -49 -2 -175 -21 -230 -35 -88 -22 -165 -43 -207
-56 -26 -7 -45 -8 -65 -1 -16 6 -134 11 -273 12 -188 1 -260 4 -309 17 -74 18
-136 12 -127 -12 3 -9 6 -24 6 -34 0 -12 8 -18 23 -18 12 -1 37 -4 55 -8 30
-6 32 -4 32 20 0 33 7 33 53 -5 37 -30 40 -31 150 -33 62 -1 119 1 127 5 8 4
53 1 100 -6 86 -13 185 -7 291 16 25 5 79 10 120 11 51 1 94 9 137 25 34 12
85 23 112 23 27 0 52 5 55 10 3 6 26 10 50 10 25 0 62 6 82 14 21 8 53 17 71
20 18 3 56 17 85 30 28 14 70 29 92 35 75 19 250 83 266 97 8 8 22 14 30 14 8
0 31 11 53 24 21 14 44 22 51 19 7 -2 31 7 54 21 22 14 47 26 55 26 8 0 21 6
28 13 32 30 78 47 105 41 25 -7 27 -6 14 10 -8 9 -12 18 -10 20 15 13 71 36
78 31 13 -8 81 23 88 40 3 8 11 15 19 15 8 0 29 14 47 31 54 53 117 92 117 74
0 -8 5 -15 11 -15 6 0 9 9 6 20 -4 15 0 20 14 20 10 0 23 9 29 21 9 16 15 18
25 9 10 -8 20 -4 44 19 18 17 36 31 40 31 5 0 11 9 14 20 3 11 13 23 24 27 25
9 33 23 33 57 0 25 3 28 25 23 20 -3 25 -1 23 12 -3 16 9 32 111 140 28 29 51
57 51 61 0 4 22 30 49 57 26 27 56 63 65 81 9 17 21 32 27 32 5 0 19 16 30 35
12 19 27 35 35 35 8 0 14 7 14 15 0 18 131 155 148 155 7 0 12 5 12 11 0 6 -7
9 -15 6 -21 -9 -31 14 -11 25 17 10 23 68 6 68 -5 0 -27 -26 -48 -57z"/>
<path d="M6410 6923 c0 -4 18 -28 40 -53 46 -51 52 -44 12 14 -26 38 -52 57
-52 39z"/>
<path d="M6500 6816 c0 -12 131 -156 141 -156 20 0 5 22 -61 89 -65 65 -80 78
-80 67z"/>
<path d="M6690 6613 c0 -18 62 -83 80 -83 27 0 32 15 12 32 -30 25 -92 60 -92
51z"/>
<path d="M6816 6511 c-11 -17 5 -39 34 -44 21 -5 30 -13 35 -36 7 -34 71 -81
109 -81 14 0 28 -4 31 -10 3 -5 15 -10 27 -10 17 0 18 2 8 15 -7 8 -17 15 -23
15 -6 0 -17 7 -26 15 -26 24 -111 85 -119 85 -4 0 -13 9 -19 20 -16 24 -50 43
-57 31z"/>
<path d="M7097 6303 c-13 -12 -7 -33 9 -33 9 0 38 -10 65 -22 46 -21 49 -25
49 -60 0 -35 2 -38 29 -38 20 0 30 -6 34 -20 3 -11 11 -20 19 -20 18 1 66 42
53 46 -10 4 -48 28 -104 66 -14 10 -33 21 -41 25 -8 4 -34 20 -56 35 -46 30
-47 31 -57 21z"/>
<path d="M7380 6127 c1 -20 90 -80 192 -129 10 -4 25 -8 34 -8 9 0 28 -6 42
-14 43 -21 102 -46 112 -46 30 0 -2 23 -97 70 -60 30 -128 65 -153 80 -68 40
-130 62 -130 47z"/>
<path d="M7825 5908 c11 -6 24 -17 28 -25 4 -7 16 -13 26 -13 9 0 26 -7 37
-15 21 -16 94 -21 94 -6 0 5 -12 14 -27 19 -16 6 -53 20 -83 31 -30 12 -64 21
-75 21 -20 -1 -20 -1 0 -12z"/>
<path d="M8040 5820 c20 -13 63 -13 55 0 -3 6 -21 10 -38 10 -24 0 -28 -3 -17
-10z"/>
<path d="M8120 5791 c8 -6 24 -11 36 -11 11 0 29 -9 39 -20 10 -11 32 -24 49
-29 17 -5 58 -19 91 -31 124 -43 125 -43 138 -26 7 9 26 20 42 25 l30 9 -33 1
c-37 1 -170 38 -188 52 -15 12 -95 29 -164 35 -40 4 -51 3 -40 -5z"/>
<path d="M8555 5690 c3 -5 1 -19 -5 -30 -9 -17 -8 -20 8 -20 25 0 46 25 38 45
-3 8 -15 15 -26 15 -12 0 -18 -4 -15 -10z"/>
<path d="M8632 5643 c4 -22 43 -25 43 -3 0 8 -11 16 -23 18 -19 3 -23 0 -20
-15z"/>
<path d="M487 1206 c-23 -20 -37 -41 -35 -52 2 -14 9 -11 36 17 66 67 65 94
-1 35z"/>
</g>
</svg>
